  <svg class="logo" viewBox="0 0 361 50" fill="none" xmlns="http://www.w3.org/2000/svg">
            <path fill-rule="evenodd" clip-rule="evenodd" d="M68.6865 14.5841C68.1856 14.3665 67.5577 14.2409 66.3341 14.2409H61.8512V19.9474H66.0844C67.3693 19.9474 68.1228 19.7912 68.7186 19.5108C69.7232 19.01 70.224 18.128 70.224 16.9394C70.224 15.8705 69.6589 15.0236 68.6865 14.5841ZM67.5913 6.02145C67.1182 5.80388 66.5531 5.67831 65.6449 5.67831H61.8512V11.0723H65.4258C66.5531 11.0723 67.2438 10.8839 67.7446 10.5992C68.5623 10.1334 68.9697 9.34633 68.9697 8.34318C68.9697 7.30789 68.4981 6.4639 67.5913 6.02145ZM58.3059 23.1482V2.479H65.8945C67.5256 2.479 68.5901 2.73016 69.4706 3.13756C71.5703 4.14217 72.5136 6.05358 72.5136 7.8102C72.5136 9.78731 71.6945 11.1336 70.0328 12.1397V12.2025C72.4173 12.7325 73.8599 14.3943 73.8599 16.9058C73.8599 19.6962 72.1676 21.8296 69.2822 22.7086C68.2455 23.0211 67.1182 23.1482 65.3294 23.1482H58.3059Z" fill="#FFFFFE" />
            <path fill-rule="evenodd" clip-rule="evenodd" d="M94.5422 23.1467H98.0862V2.479H94.5422V23.1467Z" fill="#FFFFFE" />
            <path fill-rule="evenodd" clip-rule="evenodd" d="M120.272 23.1467H123.813V2.479H120.272V23.1467Z" fill="#FFFFFE" />
            <path fill-rule="evenodd" clip-rule="evenodd" d="M135.26 2.29199C137.487 2.29199 139.746 2.82643 140.997 3.45285L140.937 6.83906C139.148 5.96148 137.329 5.39492 135.167 5.39492C133.224 5.39492 131.56 5.9936 131.56 7.62319C131.56 11.8578 142.194 10.1639 142.194 17.1554C142.194 21.0147 138.931 23.4576 134.193 23.4576C130.966 23.4576 128.739 22.5479 127.201 21.6119L128.673 18.7251C129.93 19.5107 131.939 20.3562 134.32 20.3562C136.454 20.3562 138.43 19.5384 138.43 17.6592C138.43 13.2333 127.892 15.1797 127.892 8.12404C127.892 4.35964 130.9 2.29199 135.26 2.29199Z" fill="#FFFFFE" />
            <path fill-rule="evenodd" clip-rule="evenodd" d="M158.971 23.1482V14.2409H148.933V23.1482H145.389V2.479H148.933V10.9482H158.971V2.479H162.515V23.1482H158.971Z" fill="#FFFFFE" />
            <path fill-rule="evenodd" clip-rule="evenodd" d="M66.1311 26.7783C68.3871 26.7783 70.1116 27.2193 71.8711 28.0005L70.8023 31.0129C69.7991 30.5442 68.4791 29.9791 66.5078 29.9791C62.5872 29.9791 60.1428 33.3025 60.1428 37.3473C60.1428 41.4271 62.4295 44.749 66.5078 44.749C68.4791 44.749 69.7991 44.1868 70.8023 43.7123L71.8711 46.7276C70.1116 47.5088 68.3871 47.9469 66.1311 47.9469C59.95 47.9469 56.4091 43.6203 56.4091 37.4115C56.4091 31.6101 59.95 26.7783 66.1311 26.7783Z" fill="#FFFFFE" />
            <path fill-rule="evenodd" clip-rule="evenodd" d="M143.672 26.7783C145.931 26.7783 147.656 27.2193 149.409 28.0005L148.346 31.0129C147.34 30.5442 146.022 29.9791 144.046 29.9791C140.125 29.9791 137.68 33.3025 137.68 37.3473C137.68 41.4271 139.971 44.749 144.046 44.749C146.022 44.749 147.34 44.1868 148.346 43.7123L149.409 46.7276C147.656 47.5088 145.931 47.9469 143.672 47.9469C137.49 47.9469 133.947 43.6203 133.947 37.4115C133.947 31.6101 137.49 26.7783 143.672 26.7783Z" fill="#FFFFFE" />
            <path fill-rule="evenodd" clip-rule="evenodd" d="M88.3948 37.3473C88.3948 32.8323 85.8248 29.947 82.3423 29.947C78.8626 29.947 76.2883 32.8323 76.2883 37.3779C76.2883 41.8987 78.8626 44.7797 82.3423 44.7797C85.8248 44.7797 88.3948 41.8987 88.3948 37.3473ZM92.1271 37.2816C92.1271 43.4947 88.1728 47.9469 82.3423 47.9469C76.4474 47.9469 72.5589 43.651 72.5589 37.4436C72.5589 31.2334 76.5073 26.7783 82.3423 26.7783C88.2415 26.7783 92.1271 31.0772 92.1271 37.2816Z" fill="#FFFFFE" />
            <path fill-rule="evenodd" clip-rule="evenodd" d="M94.5233 39.8541V26.9678H98.0672V39.9826C98.0672 43.4286 99.9187 44.718 102.865 44.718C105.876 44.718 107.665 43.4286 107.665 39.9826V26.9678H111.209V39.8541C111.209 45.47 108.008 47.9465 102.806 47.9465C97.6904 47.9465 94.5233 45.47 94.5233 39.8541Z" fill="#FFFFFE" />
            <path fill-rule="evenodd" clip-rule="evenodd" d="M117.87 32.5837H117.808C117.87 33.27 117.901 34.3695 117.901 35.3435V47.6326H114.359V26.9692H118.184L127.776 41.0485H127.842C127.776 40.3578 127.749 39.2598 127.749 38.2858V26.9692H131.29V47.6326H128.156L117.87 32.5837Z" fill="#FFFFFE" />
            <path fill-rule="evenodd" clip-rule="evenodd" d="M152.194 47.6355H155.732V26.9678H152.194V47.6355Z" fill="#FFFFFE" />
            <path fill-rule="evenodd" clip-rule="evenodd" d="M158.971 47.6355V26.9678H162.515V44.4347H170.604V47.6355H158.971Z" fill="#FFFFFE" />
            <path fill-rule="evenodd" clip-rule="evenodd" d="M117.562 2.4834H100.786V5.71337H107.401V23.1482H110.945V5.71337H117.562V2.4834Z" fill="#FFFFFE" />
            <mask id="mask0_8885_2370" style="mask-type: luminance" maskUnits="userSpaceOnUse" x="0" y="0" width="93" height="50">
              <path fill-rule="evenodd" clip-rule="evenodd" d="M0 0.587891H92.2088V49.5222H0V0.587891Z" fill="white" />
            </mask>
            <g mask="url(#mask0_8885_2370)">
              <path fill-rule="evenodd" clip-rule="evenodd" d="M83.4943 5.68124H79.8249V11.9543H83.3366C85.8774 11.9543 87.0689 10.6372 87.0689 8.75497C87.0689 7.06113 85.9709 5.68124 83.4943 5.68124ZM88.1641 23.1482C85.1561 16.9102 84.3705 15.1521 83.1162 15.1521H79.8249V23.1482H76.2824V2.4834H83.2739C88.6021 2.4834 90.6435 5.30597 90.6435 8.44102C90.6435 11.2008 89.0446 13.0509 86.8163 13.7372V13.7708C87.7567 14.3052 88.7584 16.2502 92.2088 23.1482H88.1641Z" fill="#FFFFFE" />
              <path fill-rule="evenodd" clip-rule="evenodd" d="M23.5516 12.4082C23.5516 18.9368 18.2598 24.23 11.7327 24.23C5.20416 24.23 -0.087616 18.9368 -0.087616 12.4082C-0.087616 5.88112 5.20416 0.587891 11.7327 0.587891C18.2598 0.587891 23.5516 5.88112 23.5516 12.4082Z" fill="#FFFFFE" />
              <path fill-rule="evenodd" clip-rule="evenodd" d="M48.8467 12.4082C48.8467 18.9368 43.5549 24.23 37.0278 24.23C30.4992 24.23 25.2075 18.9368 25.2075 12.4082C25.2075 5.88112 30.4992 0.587891 37.0278 0.587891C43.5549 0.587891 48.8467 5.88112 48.8467 12.4082Z" fill="#FFFFFE" />
              <path fill-rule="evenodd" clip-rule="evenodd" d="M23.5516 37.7031C23.5516 44.2317 18.2598 49.522 11.7327 49.522C5.20416 49.522 -0.087616 44.2317 -0.087616 37.7031C-0.087616 31.1731 5.20416 25.8828 11.7327 25.8828C18.2598 25.8828 23.5516 31.1731 23.5516 37.7031Z" fill="#FFFFFE" />
            </g>
            <path fill-rule="evenodd" clip-rule="evenodd" d="M48.8467 37.7031C48.8467 44.2317 43.5549 49.522 37.0278 49.522C30.4992 49.522 25.2075 44.2317 25.2075 37.7031C25.2075 31.1731 30.4992 25.8828 37.0278 25.8828C43.5549 25.8828 48.8467 31.1731 48.8467 37.7031Z" fill="#FFFFFE" />
            <path fill-rule="evenodd" clip-rule="evenodd" d="M193.981 48.2973H205.858V1.88037H193.981V48.2973Z" fill="#FFFFFE" />
            <path fill-rule="evenodd" clip-rule="evenodd" d="M210.755 1.88037H246.649V11.3702H222.634V19.8905H246.584V29.1876H222.634V38.806H246.779V48.2973H210.755V1.88037Z" fill="#FFFFFE" />
            <path fill-rule="evenodd" clip-rule="evenodd" d="M251.235 1.88037H263.178V38.2248H284.998V48.2973H251.235V1.88037Z" fill="#FFFFFE" />
            <path fill-rule="evenodd" clip-rule="evenodd" d="M289.457 11.3045H276.156V1.88037H314.698V11.3045H301.333V48.2973H289.457V11.3045Z" fill="#FFFFFE" />
            <path fill-rule="evenodd" clip-rule="evenodd" d="M326.612 32.8671C326.739 38.1618 329.709 40.8734 335.391 40.8734C340.361 40.8734 343.009 39.1299 343.009 36.2898C343.009 34.7391 342.299 33.5768 341.201 32.9956C338.427 31.5763 333.132 30.6724 326.352 27.9594C319.638 25.3135 316.153 20.8599 316.153 15.114C316.153 6.3995 323.061 0.587891 334.683 0.587891C345.979 0.587891 352.886 6.65649 352.886 15.8879H341.718C341.201 11.5628 338.682 9.56229 333.906 9.56229C329.903 9.56229 327.45 11.4343 327.45 13.7575C327.45 17.2444 331.067 17.9541 338.361 20.343C343.718 22.085 347.594 23.3116 349.853 25.1193C352.886 27.5724 354.436 30.9294 354.436 34.9333C354.436 43.969 347.27 49.5879 334.229 49.5879C322.159 49.5879 315.894 44.1005 315.185 32.8671H326.612Z" fill="#FFFFFE" />
            <path fill-rule="evenodd" clip-rule="evenodd" d="M352.294 2.69187H350.746V1.76318H354.909V2.69187H353.37V6.98487H352.294V2.69187Z" fill="#FFFFFE" />
            <path fill-rule="evenodd" clip-rule="evenodd" d="M355.6 1.76318H357.189L358.228 5.73493L359.251 1.76318H360.85V6.98487H359.841V2.77218L358.78 6.98487H357.682L356.609 2.77218V6.98487H355.6V1.76318Z" fill="#FFFFFE" />
          </svg>